<mxfile host="app.diagrams.net" agent="Mozilla/5.0 (Windows NT 10.0; Win64; x64) AppleWebKit/537.36 (KHTML, like Gecko) Chrome/137.0.0.0 Safari/537.36" version="27.1.6">
  <diagram name="Página-1" id="sqgpJb5s-9mGjz3gSsxz">
    <mxGraphModel grid="1" page="1" gridSize="10" guides="1" tooltips="1" connect="1" arrows="1" fold="1" pageScale="1" pageWidth="827" pageHeight="1169" math="0" shadow="0">
      <root>
        <mxCell id="0" />
        <mxCell id="1" parent="0" />
        <mxCell id="-9i0R2BHDb06YTLDKoHw-17" value="" style="rounded=0;whiteSpace=wrap;html=1;" vertex="1" parent="1">
          <mxGeometry x="1400" y="1580" width="1160" height="940" as="geometry" />
        </mxCell>
        <mxCell id="-9i0R2BHDb06YTLDKoHw-18" value="&lt;font style=&quot;font-size: 24px;&quot;&gt;Cliente&lt;/font&gt;" style="shape=umlActor;verticalLabelPosition=bottom;verticalAlign=top;html=1;outlineConnect=0;" vertex="1" parent="1">
          <mxGeometry x="1130" y="1900" width="150" height="300" as="geometry" />
        </mxCell>
        <mxCell id="-9i0R2BHDb06YTLDKoHw-19" value="&lt;font style=&quot;font-size: 24px;&quot;&gt;Casos de Uso - Cliente&lt;/font&gt;" style="text;html=1;align=center;verticalAlign=middle;whiteSpace=wrap;rounded=0;" vertex="1" parent="1">
          <mxGeometry x="1400" y="1540" width="260" height="40" as="geometry" />
        </mxCell>
        <mxCell id="-9i0R2BHDb06YTLDKoHw-22" style="edgeStyle=orthogonalEdgeStyle;rounded=0;orthogonalLoop=1;jettySize=auto;html=1;exitX=0.5;exitY=1;exitDx=0;exitDy=0;" edge="1" parent="1">
          <mxGeometry relative="1" as="geometry">
            <mxPoint x="1890" y="1920" as="sourcePoint" />
            <mxPoint x="1890" y="1920" as="targetPoint" />
          </mxGeometry>
        </mxCell>
        <mxCell id="-9i0R2BHDb06YTLDKoHw-23" value="Solicitar Agendamiento de Cita" style="ellipse;whiteSpace=wrap;html=1;" vertex="1" parent="1">
          <mxGeometry x="1920" y="1910" width="120" height="80" as="geometry" />
        </mxCell>
        <mxCell id="-9i0R2BHDb06YTLDKoHw-24" value="Solicitud Cancelar Evento" style="ellipse;whiteSpace=wrap;html=1;" vertex="1" parent="1">
          <mxGeometry x="1920" y="1770" width="120" height="80" as="geometry" />
        </mxCell>
        <mxCell id="-9i0R2BHDb06YTLDKoHw-25" value="Añadir Comentario en Galería" style="ellipse;whiteSpace=wrap;html=1;" vertex="1" parent="1">
          <mxGeometry x="1920" y="2330" width="120" height="80" as="geometry" />
        </mxCell>
        <mxCell id="-9i0R2BHDb06YTLDKoHw-26" value="Diligenciar Encuesta Satisfacción" style="ellipse;whiteSpace=wrap;html=1;" vertex="1" parent="1">
          <mxGeometry x="1910" y="2080" width="120" height="80" as="geometry" />
        </mxCell>
        <mxCell id="-9i0R2BHDb06YTLDKoHw-27" value="" style="endArrow=none;html=1;rounded=0;exitX=1;exitY=0.3333333333333333;exitDx=0;exitDy=0;exitPerimeter=0;entryX=0;entryY=0.5;entryDx=0;entryDy=0;" edge="1" parent="1" source="-9i0R2BHDb06YTLDKoHw-18" target="-9i0R2BHDb06YTLDKoHw-26">
          <mxGeometry width="50" height="50" relative="1" as="geometry">
            <mxPoint x="1990" y="2610" as="sourcePoint" />
            <mxPoint x="2660" y="2928" as="targetPoint" />
          </mxGeometry>
        </mxCell>
        <mxCell id="-9i0R2BHDb06YTLDKoHw-28" value="" style="endArrow=none;html=1;rounded=0;exitX=1;exitY=0.3333333333333333;exitDx=0;exitDy=0;exitPerimeter=0;entryX=0;entryY=0.5;entryDx=0;entryDy=0;" edge="1" parent="1" source="-9i0R2BHDb06YTLDKoHw-18" target="-9i0R2BHDb06YTLDKoHw-25">
          <mxGeometry width="50" height="50" relative="1" as="geometry">
            <mxPoint x="1320" y="2360" as="sourcePoint" />
            <mxPoint x="1990" y="2778" as="targetPoint" />
          </mxGeometry>
        </mxCell>
        <mxCell id="-9i0R2BHDb06YTLDKoHw-29" value="Solicitud cambio de documento" style="ellipse;whiteSpace=wrap;html=1;" vertex="1" parent="1">
          <mxGeometry x="1920" y="1630" width="120" height="80" as="geometry" />
        </mxCell>
        <mxCell id="-9i0R2BHDb06YTLDKoHw-33" value="" style="endArrow=none;html=1;rounded=0;exitX=1;exitY=0.3333333333333333;exitDx=0;exitDy=0;exitPerimeter=0;entryX=0;entryY=0.5;entryDx=0;entryDy=0;" edge="1" parent="1" source="-9i0R2BHDb06YTLDKoHw-18" target="-9i0R2BHDb06YTLDKoHw-23">
          <mxGeometry width="50" height="50" relative="1" as="geometry">
            <mxPoint x="1440" y="2030" as="sourcePoint" />
            <mxPoint x="2070" y="2150" as="targetPoint" />
          </mxGeometry>
        </mxCell>
        <mxCell id="-9i0R2BHDb06YTLDKoHw-34" value="" style="endArrow=none;html=1;rounded=0;exitX=1;exitY=0.3333333333333333;exitDx=0;exitDy=0;exitPerimeter=0;entryX=0;entryY=0.5;entryDx=0;entryDy=0;" edge="1" parent="1" source="-9i0R2BHDb06YTLDKoHw-18" target="-9i0R2BHDb06YTLDKoHw-24">
          <mxGeometry width="50" height="50" relative="1" as="geometry">
            <mxPoint x="1410" y="2060" as="sourcePoint" />
            <mxPoint x="2050" y="2010" as="targetPoint" />
          </mxGeometry>
        </mxCell>
        <mxCell id="-9i0R2BHDb06YTLDKoHw-35" value="" style="endArrow=none;html=1;rounded=0;exitX=1;exitY=0.3333333333333333;exitDx=0;exitDy=0;exitPerimeter=0;entryX=0;entryY=0.5;entryDx=0;entryDy=0;" edge="1" parent="1" source="-9i0R2BHDb06YTLDKoHw-18" target="-9i0R2BHDb06YTLDKoHw-29">
          <mxGeometry width="50" height="50" relative="1" as="geometry">
            <mxPoint x="1270" y="2040" as="sourcePoint" />
            <mxPoint x="1910" y="1990" as="targetPoint" />
          </mxGeometry>
        </mxCell>
      </root>
    </mxGraphModel>
  </diagram>
</mxfile>
